<svg version="1.1" id="Layer_1" xmlns="http://www.w3.org/2000/svg" xmlns:xlink="http://www.w3.org/1999/xlink" x="0px" y="0px"
	 width="100%" viewBox="0 0 1646 380" enable-background="new 0 0 1646 380" xml:space="preserve">
<path fill="#FFFEFE" opacity="1.000000" stroke="none" 
	d="
M1.000001,360.000000 
	C1.000000,240.346008 1.000000,120.692017 1.000000,1.019012 
	C549.595886,1.019012 1098.191772,1.019012 1646.893799,1.019012 
	C1646.893799,127.582382 1646.893799,254.164871 1646.893799,380.873688 
	C1098.333374,380.873688 549.666687,380.873688 1.000000,380.873688 
	C1.000000,377.260468 1.000000,373.593964 1.358878,369.131348 
	C7.160833,368.335297 12.603909,368.335297 18.310459,368.335297 
	C23.997452,326.457367 29.619097,285.060638 35.424946,242.307480 
	C37.051113,244.950485 38.010395,246.267319 38.724670,247.705826 
	C58.214088,286.956268 77.663818,326.226440 97.215065,365.446014 
	C97.826889,366.673370 99.495766,368.223877 100.580513,368.156342 
	C102.029999,368.066101 103.943573,366.858032 104.685677,365.569885 
	C107.000717,361.551544 108.840843,357.261017 110.895645,353.091064 
	C125.080231,324.305298 139.264542,295.519379 153.467865,266.742828 
	C157.248779,259.082550 161.095642,251.454819 164.912231,243.812149 
	C165.245468,243.876816 165.578720,243.941498 165.911957,244.006165 
	C171.557602,285.398834 177.203232,326.791534 182.843109,368.142029 
	C188.960159,368.142029 194.570389,368.142029 200.429321,368.142029 
	C200.287674,366.607666 200.226288,365.302704 200.039551,364.015930 
	C197.127274,343.947845 194.161865,323.887421 191.282166,303.814697 
	C186.086334,267.597473 180.955826,231.370850 175.711395,195.160721 
	C175.506271,193.744568 174.406830,192.457916 173.724091,191.110931 
	C172.647720,192.192230 171.188431,193.085190 170.550507,194.382126 
	C150.750793,234.636780 131.036438,274.933411 111.294388,315.216431 
	C108.125336,321.682739 104.887711,328.115417 101.309814,335.311829 
	C100.003120,333.259979 99.113068,332.106781 98.476868,330.827362 
	C85.316872,304.362213 72.155823,277.897491 59.059032,251.401031 
	C49.868645,232.807739 40.815140,214.146606 31.567734,195.581909 
	C30.703295,193.846497 28.882355,192.587540 27.505524,191.107361 
	C26.807051,192.988815 25.752705,194.817520 25.464716,196.759842 
	C22.316502,217.992783 19.242929,239.237076 16.237530,260.490814 
	C11.717986,292.452332 7.283336,324.425873 2.736770,356.383514 
	C2.557184,357.645813 1.596656,358.797028 1.000001,360.000000 
M911.871277,282.761292 
	C917.049927,275.567200 922.228638,268.373077 927.925537,260.784302 
	C970.560242,202.491226 1013.195007,144.198151 1056.070923,85.575363 
	C1058.646606,90.380104 1060.794800,94.387413 1063.005981,98.511971 
	C1068.235474,95.002716 1065.667236,90.747574 1065.514160,86.787880 
	C1065.379517,83.303970 1064.658569,79.020073 1066.311523,76.449234 
	C1070.679199,69.656433 1076.194092,63.601376 1081.299194,57.193920 
	C1091.427490,69.916214 1101.295898,82.312210 1111.164307,94.708214 
	C1111.948853,94.353500 1112.733398,93.998795 1113.517822,93.644089 
	C1113.270874,91.803284 1113.356934,89.838448 1112.724609,88.141190 
	C1107.383545,73.803993 1101.976562,59.490303 1096.430786,45.231216 
	C1095.114502,41.846752 1095.073364,39.461010 1097.716187,36.304977 
	C1103.017822,29.974022 1107.816772,23.147696 1112.150635,16.111639 
	C1114.346558,12.546527 1116.270874,7.592863 1111.537598,4.417109 
	C1106.834595,1.261639 1102.737793,4.746459 1099.756104,7.874269 
	C1094.725708,13.151133 1089.783936,18.714310 1085.954834,24.872196 
	C1082.728882,30.060122 1078.813110,30.418274 1073.736450,29.761057 
	C1059.385620,27.903206 1045.023315,26.124004 1030.640747,24.537495 
	C1029.005127,24.357075 1027.212769,25.598412 1025.493042,26.180506 
	C1026.634277,27.401646 1027.547363,29.128065 1028.953491,29.762854 
	C1038.957886,34.279556 1049.065796,38.566853 1059.134644,42.941555 
	C1062.233398,44.287899 1065.312622,45.679031 1068.883789,47.263992 
	C1065.476196,51.890038 1062.310303,55.564766 1059.849976,59.663048 
	C1055.273682,67.285843 1049.337646,71.756577 1039.939819,70.689865 
	C1037.022827,70.358757 1034.364746,71.679008 1033.800537,75.947823 
	C1038.357544,77.006973 1042.906128,78.064163 1047.875610,79.219170 
	C1019.235840,117.847000 990.917969,156.040558 962.127380,194.331299 
	C961.727295,194.576462 961.327271,194.821609 961.026489,195.030548 
	C961.026489,195.030548 961.001587,194.927780 960.210388,194.924515 
	C949.715698,197.380783 940.179749,202.007370 931.382935,208.105118 
	C904.131409,226.995148 890.964905,252.732544 893.351196,286.582947 
	C890.001343,291.610565 886.651489,296.638153 882.731445,301.947571 
	C875.458313,310.568146 868.185242,319.188751 860.318237,328.133759 
	C851.198425,335.720947 842.078613,343.308105 832.234558,351.149078 
	C823.668945,355.427917 815.339722,352.560059 813.094910,343.549255 
	C811.362366,336.594727 811.385071,329.202942 810.891663,321.184723 
	C812.979675,312.556610 815.067627,303.928497 818.019897,295.276154 
	C825.355957,293.209045 832.692078,291.141937 840.756531,289.031525 
	C849.564087,284.892029 857.751465,279.915466 864.196350,271.451813 
	C869.090393,266.206696 872.961731,260.418060 875.210510,253.467606 
	C879.530640,240.115295 873.918640,227.503082 861.731750,223.464859 
	C853.161926,220.625168 845.416016,222.508743 837.246033,226.948135 
	C828.411926,231.768326 821.372131,238.482452 815.497070,247.400497 
	C811.310913,255.592468 807.124695,263.784424 802.424866,272.457336 
	C799.002319,280.639313 795.579712,288.821289 791.684265,297.498047 
	C786.809570,304.035004 781.934875,310.571960 776.453003,317.382263 
	C770.520142,324.015472 764.587219,330.648712 757.987732,337.536011 
	C751.657776,341.430511 745.327759,345.325043 738.147522,349.081146 
	C731.497192,349.770020 727.090576,346.740723 725.521423,340.444946 
	C723.930176,334.060242 723.081970,327.490356 722.093506,320.123108 
	C723.464294,311.224823 724.835022,302.326508 726.888611,293.055634 
	C734.260010,290.384827 741.631348,287.714020 749.704590,284.899078 
	C759.112305,280.122284 767.638611,274.281097 774.085144,264.963470 
	C777.083069,258.756805 780.784485,252.780182 782.907349,246.287430 
	C785.796326,237.451904 783.985413,228.770294 776.802673,222.585388 
	C769.614868,216.396072 760.959656,215.408325 751.278564,219.070282 
	C748.485840,220.439270 745.682434,221.786972 742.903198,223.182785 
	C739.590332,224.846558 736.298157,226.551575 732.171814,228.073380 
	C722.811340,230.451248 713.450867,232.829117 703.335510,235.168579 
	C693.175598,239.213654 683.015686,243.258713 672.100464,247.471481 
	C668.511169,249.137390 664.694702,250.446625 661.385986,252.553207 
	C656.489075,255.670975 651.911865,256.567932 646.688904,252.166473 
	C642.322449,249.775604 637.974365,247.350464 633.585938,245.000549 
	C622.314209,238.964706 610.799744,233.340958 599.817078,226.820251 
	C591.796570,222.058304 590.520752,215.760559 596.269714,208.369812 
	C601.082825,202.182129 607.355896,197.130051 613.595093,191.383209 
	C620.758972,186.999405 627.922913,182.615601 635.841553,178.154800 
	C643.258972,175.552216 650.676392,172.949646 658.960754,170.273071 
	C666.757019,168.986221 674.476440,167.587982 680.518250,175.002411 
	C681.443176,176.137390 684.134216,175.833160 686.756104,176.274475 
	C687.803101,175.813141 688.963562,175.512741 689.880005,174.866302 
	C703.317505,165.388504 701.426025,141.543533 686.547607,133.428970 
	C678.091614,128.817169 669.114563,128.842010 659.171570,130.908524 
	C652.629883,132.839432 646.088196,134.770340 638.802795,136.715607 
	C631.426697,140.102020 624.050659,143.488449 615.970093,146.897324 
	C609.682495,151.031906 603.394897,155.166489 596.469360,159.457016 
	C593.771362,161.903793 591.142700,164.432602 588.363342,166.783096 
	C576.606567,176.725601 568.333008,188.980270 564.649536,203.948593 
	C561.153931,218.153793 563.446594,231.199066 576.357544,239.810287 
	C586.532715,246.596817 597.472229,252.277084 608.278198,258.064117 
	C615.360657,261.857056 622.810242,264.964417 630.711975,268.667755 
	C629.289978,269.756927 628.673767,270.256073 628.030518,270.717438 
	C615.353699,279.809723 602.191040,288.305878 590.126526,298.148224 
	C577.343567,308.576599 565.935974,320.500061 560.153076,336.644379 
	C555.254089,350.320923 560.603027,364.050934 573.723389,368.643585 
	C579.379395,370.623474 585.800232,371.595734 591.778809,371.272430 
	C617.102966,369.903198 638.314270,358.494965 657.252258,342.481079 
	C667.362305,333.932068 675.916016,324.014771 680.498474,310.435516 
	C687.038818,293.296448 680.858826,279.578552 668.225220,267.336975 
	C671.776367,264.960327 674.882568,262.881500 678.678101,260.734283 
	C688.794678,255.846603 698.911255,250.958893 709.781067,246.010132 
	C714.350342,244.452744 718.919617,242.895355 724.699890,240.925217 
	C722.866394,244.493729 721.744202,246.677887 720.175903,249.374298 
	C717.284607,256.205750 714.393311,263.037170 711.137146,270.459290 
	C709.005493,279.932953 706.873840,289.406586 704.405701,299.611023 
	C702.416931,313.744293 702.307678,327.851929 706.120300,341.695282 
	C711.426636,360.962585 726.322815,370.554413 744.715088,363.852600 
	C751.815979,359.255066 758.916931,354.657562 766.619812,349.765900 
	C773.118713,342.191284 779.617554,334.616669 786.715210,326.715607 
	C788.081360,325.146240 789.447571,323.576843 791.272278,321.480652 
	C791.875671,328.272675 791.977966,334.395081 793.039612,340.346375 
	C795.293762,352.981171 799.907349,364.382568 813.736206,368.300873 
	C822.943359,370.909698 831.802979,368.844299 840.671753,363.853088 
	C851.862732,357.511169 861.381104,349.236053 869.863586,338.802948 
	C877.373108,328.913635 884.882568,319.024292 892.932068,308.782104 
	C899.051941,300.217529 905.171814,291.652954 911.871277,282.761292 
M1309.484985,319.020966 
	C1317.256226,351.443329 1346.881836,366.306061 1372.054321,366.518372 
	C1400.584229,366.758972 1426.717041,348.704773 1435.779419,321.637390 
	C1445.287720,293.237793 1435.225952,262.659393 1410.404907,244.641434 
	C1399.672729,236.850815 1387.514038,233.205994 1374.381226,233.236862 
	C1353.933716,233.284912 1337.169067,241.599747 1323.145020,258.432556 
	C1323.145020,233.850113 1323.145020,210.839798 1323.145020,187.760651 
	C1317.465454,187.760651 1312.368530,187.760651 1307.023071,187.760651 
	C1307.023071,189.859680 1307.023193,191.681427 1307.023193,193.503174 
	C1307.023438,229.168488 1306.925293,264.834351 1307.120972,300.498596 
	C1307.153442,306.422211 1308.465820,312.338867 1309.484985,319.020966 
M1598.110229,352.495789 
	C1598.074463,334.679016 1598.199463,316.860107 1597.963257,299.045990 
	C1597.653320,275.690491 1587.374512,257.139435 1568.350464,244.273682 
	C1547.044189,229.864670 1523.660889,228.818832 1501.153198,240.695084 
	C1477.473022,253.189926 1465.552856,274.065063 1465.858032,301.084259 
	C1466.419067,350.782440 1515.654785,381.070007 1559.629517,358.972839 
	C1568.393433,354.569061 1574.963379,347.752808 1581.083740,338.260651 
	C1581.083740,348.874451 1581.083740,357.886627 1581.083740,366.712097 
	C1587.027344,366.712097 1592.443726,366.712097 1598.110229,366.712097 
	C1598.110229,362.111725 1598.110229,357.802307 1598.110229,352.495789 
M1230.868286,364.387726 
	C1258.493042,357.725342 1278.671143,331.480072 1279.187134,301.540558 
	C1279.938354,257.945862 1241.644165,225.584213 1199.744995,234.405701 
	C1173.534302,239.924133 1153.304077,260.916565 1148.224365,287.867615 
	C1143.282227,314.088165 1154.887573,341.718750 1176.853149,356.147461 
	C1193.330078,366.970825 1211.315796,368.216797 1230.868286,364.387726 
M231.503784,319.322205 
	C234.034241,349.408539 253.485352,365.507355 277.371246,368.117950 
	C296.615509,370.221283 314.648773,367.763000 329.095612,353.262970 
	C339.827576,342.491516 343.703125,328.762085 344.042389,314.169342 
	C344.642242,288.369080 344.498413,262.551483 344.642212,236.740967 
	C344.645660,236.122070 344.370636,235.501633 344.181396,234.693665 
	C338.753998,234.693665 333.500122,234.693665 327.618652,234.693665 
	C327.618652,236.620865 327.620911,238.401077 327.618286,240.181290 
	C327.586761,261.667725 327.807129,283.158844 327.408478,304.638458 
	C327.227844,314.372192 327.323700,324.458405 322.219025,333.279816 
	C312.945618,349.305237 294.901794,355.786011 274.887024,350.675659 
	C258.720032,346.547821 248.247589,332.739685 247.973267,314.235138 
	C247.607910,289.590393 247.675674,264.939270 247.559311,240.290863 
	C247.550903,238.510880 247.558197,236.730820 247.558197,234.826721 
	C241.387192,234.826721 235.841812,234.826721 229.942368,234.826721 
	C229.942368,241.841553 229.839752,248.490341 229.961319,255.135025 
	C230.347595,276.250183 230.817429,297.363861 231.503784,319.322205 
M1054.269653,308.510864 
	C1044.852661,334.501404 1025.316162,348.004791 998.789429,350.593689 
	C967.347900,353.662201 941.063171,343.022247 923.054138,316.045013 
	C918.515808,309.246643 915.795410,301.234619 912.186829,293.669739 
	C909.523438,297.368805 906.956970,301.678741 903.652954,305.319275 
	C900.108459,309.224670 899.907410,312.491547 902.469177,317.169098 
	C918.430542,346.312988 942.753479,363.015778 975.715210,366.764008 
	C997.851379,369.281128 1019.225342,366.867859 1038.748901,354.953247 
	C1063.905029,339.601257 1076.827393,310.869781 1075.408569,281.530396 
	C1051.036377,281.530396 1026.664185,281.530396 1002.470337,281.530396 
	C1002.470337,287.154816 1002.470337,292.395111 1002.470337,298.073395 
	C1020.715454,298.073395 1038.587891,298.073395 1056.860962,298.073395 
	C1056.023804,301.652618 1055.308838,304.709259 1054.269653,308.510864 
M444.771057,252.141251 
	C445.684937,251.036926 446.598785,249.932602 447.623505,248.694305 
	C439.866913,241.010193 431.517914,235.040283 421.319550,232.429291 
	C406.418884,228.614395 393.038422,231.692596 382.983154,243.776459 
	C373.826141,254.780884 373.292511,267.473938 378.570221,280.391479 
	C382.926941,291.054871 392.324280,296.615509 401.754913,301.999481 
	C408.234009,305.698395 414.864227,309.162323 421.143585,313.174652 
	C431.472443,319.774414 434.343506,330.944336 428.638763,340.810883 
	C422.124603,352.077332 406.559387,356.174622 394.432800,349.314026 
	C389.314972,346.418610 384.841858,342.383636 379.678802,338.573792 
	C376.374115,342.333282 372.941376,346.238434 369.460907,350.197906 
	C379.270691,362.755524 392.227295,368.327667 407.088257,368.818604 
	C425.579926,369.429443 440.969849,359.008667 445.794678,342.459320 
	C450.927155,324.854675 446.443665,310.406250 431.598724,300.440887 
	C421.970123,293.977203 411.539856,288.713013 401.857635,282.322266 
	C394.835144,277.687073 389.346008,271.460541 391.040192,262.048279 
	C393.177643,250.173401 407.313171,243.382599 419.473846,248.744385 
	C425.602844,251.446732 431.118042,255.541245 438.550262,259.986877 
	C439.990784,258.125092 442.115417,255.379196 444.771057,252.141251 
M490.095032,339.090698 
	C488.782410,333.122498 486.496338,327.179352 486.342072,321.181366 
	C485.901184,304.040802 486.320038,286.877930 486.420654,269.723938 
	C486.430908,267.977386 486.575531,266.231659 486.678955,264.037231 
	C497.121429,264.037231 507.029510,264.037231 516.839844,264.037231 
	C516.839844,258.985687 516.839844,254.423660 516.839844,249.322662 
	C506.471130,249.322662 496.415466,249.322662 485.962036,249.322662 
	C485.962036,228.182556 485.962036,207.587128 485.962036,186.792511 
	C480.154114,186.792511 474.768219,186.792511 469.106842,186.792511 
	C469.106842,188.813156 469.106842,190.468872 469.106842,192.124573 
	C469.106873,235.939453 469.123047,279.754333 469.093353,323.569214 
	C469.087341,332.415436 471.128540,340.684662 475.472107,348.399231 
	C487.266022,369.346252 508.914948,373.908234 529.427368,363.359680 
	C527.813477,359.041779 526.199646,354.723877 524.596436,350.434631 
	C504.377136,355.555328 500.394714,354.295197 490.095032,339.090698 
M1643.723022,327.500153 
	C1643.723022,281.962250 1643.723022,236.424362 1643.723022,190.772003 
	C1637.849365,190.772003 1632.605103,190.772003 1627.392578,190.772003 
	C1627.392578,249.431458 1627.392578,307.775116 1627.392578,366.211060 
	C1632.924072,366.211060 1638.160767,366.211060 1643.723022,366.211060 
	C1643.723022,353.421265 1643.723022,340.960724 1643.723022,327.500153 
M1103.123169,337.499969 
	C1103.123169,347.069305 1103.123169,356.638611 1103.123169,366.169983 
	C1109.064331,366.169983 1114.300903,366.169983 1119.386475,366.169983 
	C1119.386475,307.466064 1119.386475,249.136124 1119.386475,190.829407 
	C1113.784546,190.829407 1108.554565,190.829407 1103.123169,190.829407 
	C1103.123169,239.634537 1103.123169,288.067230 1103.123169,337.499969 
M1042.774902,206.743668 
	C1026.447266,196.517883 1008.498230,191.850952 989.383789,191.313629 
	C988.058838,191.276382 986.174683,191.771576 985.456970,192.711380 
	C981.471863,197.929718 977.767090,203.362198 973.496155,209.384430 
	C1005.183594,204.871338 1030.367065,216.740524 1052.670654,236.881058 
	C1057.148438,232.688950 1061.438110,228.672958 1066.355591,224.069290 
	C1058.337036,218.125366 1050.881104,212.598404 1042.774902,206.743668 
z"/>
<path fill="#070707" opacity="1.000000" stroke="none" 
	d="
M1.000001,360.449982 
	C1.596656,358.797028 2.557184,357.645813 2.736770,356.383514 
	C7.283336,324.425873 11.717986,292.452332 16.237530,260.490814 
	C19.242929,239.237076 22.316502,217.992783 25.464716,196.759842 
	C25.752705,194.817520 26.807051,192.988815 27.505524,191.107361 
	C28.882355,192.587540 30.703295,193.846497 31.567734,195.581909 
	C40.815140,214.146606 49.868645,232.807739 59.059032,251.401031 
	C72.155823,277.897491 85.316872,304.362213 98.476868,330.827362 
	C99.113068,332.106781 100.003120,333.259979 101.309814,335.311829 
	C104.887711,328.115417 108.125336,321.682739 111.294388,315.216431 
	C131.036438,274.933411 150.750793,234.636780 170.550507,194.382126 
	C171.188431,193.085190 172.647720,192.192230 173.724091,191.110931 
	C174.406830,192.457916 175.506271,193.744568 175.711395,195.160721 
	C180.955826,231.370850 186.086334,267.597473 191.282166,303.814697 
	C194.161865,323.887421 197.127274,343.947845 200.039551,364.015930 
	C200.226288,365.302704 200.287674,366.607666 200.429321,368.142029 
	C194.570389,368.142029 188.960159,368.142029 182.843109,368.142029 
	C177.203232,326.791534 171.557602,285.398834 165.911957,244.006165 
	C165.578720,243.941498 165.245468,243.876816 164.912231,243.812149 
	C161.095642,251.454819 157.248779,259.082550 153.467865,266.742828 
	C139.264542,295.519379 125.080231,324.305298 110.895645,353.091064 
	C108.840843,357.261017 107.000717,361.551544 104.685677,365.569885 
	C103.943573,366.858032 102.029999,368.066101 100.580513,368.156342 
	C99.495766,368.223877 97.826889,366.673370 97.215065,365.446014 
	C77.663818,326.226440 58.214088,286.956268 38.724670,247.705826 
	C38.010395,246.267319 37.051113,244.950485 35.424946,242.307480 
	C29.619097,285.060638 23.997452,326.457367 18.310459,368.335297 
	C12.603909,368.335297 7.160833,368.335297 1.358878,368.667664 
	C1.000000,366.299988 1.000000,363.599976 1.000001,360.449982 
z"/>
<path fill="#FF376E" opacity="1.000000" stroke="none" 
	d="
M612.982483,191.575104 
	C607.355896,197.130051 601.082825,202.182129 596.269714,208.369812 
	C590.520752,215.760559 591.796570,222.058304 599.817078,226.820251 
	C610.799744,233.340958 622.314209,238.964706 633.585938,245.000549 
	C637.974365,247.350464 642.322449,249.775604 646.872070,252.823151 
	C647.409180,254.740265 647.539368,256.122803 648.150574,257.242859 
	C657.442749,274.271576 666.759705,291.287354 676.217102,308.224457 
	C676.913513,309.471680 678.729370,310.093811 680.024841,311.006531 
	C675.916016,324.014771 667.362305,333.932068 657.252258,342.481079 
	C638.314270,358.494965 617.102966,369.903198 591.778809,371.272430 
	C585.800232,371.595734 579.379395,370.623474 573.723389,368.643585 
	C560.603027,364.050934 555.254089,350.320923 560.153076,336.644379 
	C565.935974,320.500061 577.343567,308.576599 590.126526,298.148224 
	C602.191040,288.305878 615.353699,279.809723 628.030518,270.717438 
	C628.673767,270.256073 629.289978,269.756927 630.711975,268.667755 
	C622.810242,264.964417 615.360657,261.857056 608.278198,258.064117 
	C597.472229,252.277084 586.532715,246.596817 576.357544,239.810287 
	C563.446594,231.199066 561.153931,218.153793 564.649536,203.948593 
	C568.333008,188.980270 576.606567,176.725601 588.363342,166.783096 
	C591.142700,164.432602 593.771362,161.903793 596.934082,159.671783 
	C600.916504,166.404099 604.572144,172.852203 607.899597,179.465469 
	C609.862610,183.366821 611.305603,187.529800 612.982483,191.575104 
M651.836121,319.307617 
	C653.500122,316.629211 655.361267,314.051758 656.794006,311.254852 
	C663.052551,299.036896 659.143616,291.266541 650.988464,281.671875 
	C649.036621,279.375488 646.575867,277.928070 643.288940,280.473297 
	C627.815308,292.455231 611.909851,303.900879 596.777283,316.293427 
	C588.319153,323.220032 580.974304,331.596497 576.912170,342.115723 
	C574.042969,349.545624 576.810547,354.234467 584.637939,355.323090 
	C587.721863,355.752045 591.027649,355.882874 594.048889,355.259827 
	C617.428406,350.438477 636.263733,338.137756 651.836121,319.307617 
z"/>
<path fill="#030303" opacity="1.000000" stroke="none" 
	d="
M1309.335938,318.639832 
	C1308.465820,312.338867 1307.153442,306.422211 1307.120972,300.498596 
	C1306.925293,264.834351 1307.023438,229.168488 1307.023193,193.503174 
	C1307.023193,191.681427 1307.023071,189.859680 1307.023071,187.760651 
	C1312.368530,187.760651 1317.465454,187.760651 1323.145020,187.760651 
	C1323.145020,210.839798 1323.145020,233.850113 1323.145020,258.432556 
	C1337.169067,241.599747 1353.933716,233.284912 1374.381226,233.236862 
	C1387.514038,233.205994 1399.672729,236.850815 1410.404907,244.641434 
	C1435.225952,262.659393 1445.287720,293.237793 1435.779419,321.637390 
	C1426.717041,348.704773 1400.584229,366.758972 1372.054321,366.518372 
	C1346.881836,366.306061 1317.256226,351.443329 1309.335938,318.639832 
M1343.105713,257.550629 
	C1325.662598,270.261230 1319.991699,287.712189 1322.907959,308.437531 
	C1326.527832,334.163757 1350.277100,352.982971 1376.081665,350.793182 
	C1402.413818,348.558685 1423.669556,325.303284 1422.612671,299.299286 
	C1421.822266,279.846649 1413.531982,264.191162 1396.208740,254.634750 
	C1378.456543,244.841812 1360.744141,246.599945 1343.105713,257.550629 
z"/>
<path fill="#030303" opacity="1.000000" stroke="none" 
	d="
M1598.110229,352.994324 
	C1598.110229,357.802307 1598.110229,362.111725 1598.110229,366.712097 
	C1592.443726,366.712097 1587.027344,366.712097 1581.083740,366.712097 
	C1581.083740,357.886627 1581.083740,348.874451 1581.083740,338.260651 
	C1574.963379,347.752808 1568.393433,354.569061 1559.629517,358.972839 
	C1515.654785,381.070007 1466.419067,350.782440 1465.858032,301.084259 
	C1465.552856,274.065063 1477.473022,253.189926 1501.153198,240.695084 
	C1523.660889,228.818832 1547.044189,229.864670 1568.350464,244.273682 
	C1587.374512,257.139435 1597.653320,275.690491 1597.963257,299.045990 
	C1598.199463,316.860107 1598.074463,334.679016 1598.110229,352.994324 
M1562.053833,260.408905 
	C1547.679932,248.547638 1531.422363,245.972382 1514.369873,252.563705 
	C1487.309937,263.023193 1474.962769,294.767792 1486.881226,321.329712 
	C1492.780396,334.476868 1502.650391,344.825226 1516.056641,348.306824 
	C1548.693237,356.782562 1568.954956,335.578339 1578.557251,307.060791 
	C1579.097656,289.641327 1577.258667,273.044922 1562.053833,260.408905 
z"/>
<path fill="#040404" opacity="1.000000" stroke="none" 
	d="
M1230.474609,364.525024 
	C1211.315796,368.216797 1193.330078,366.970825 1176.853149,356.147461 
	C1154.887573,341.718750 1143.282227,314.088165 1148.224365,287.867615 
	C1153.304077,260.916565 1173.534302,239.924133 1199.744995,234.405701 
	C1241.644165,225.584213 1279.938354,257.945862 1279.187134,301.540558 
	C1278.671143,331.480072 1258.493042,357.725342 1230.474609,364.525024 
M1169.737793,276.346985 
	C1160.423828,295.966614 1161.726318,315.065338 1174.645264,332.319244 
	C1186.999756,348.819519 1204.483765,353.656799 1224.420044,349.882019 
	C1246.248535,345.748871 1261.080688,326.981171 1262.623657,301.864655 
	C1264.054565,278.570251 1246.461548,255.213043 1223.836060,250.368805 
	C1202.098755,245.714752 1182.572144,254.896301 1169.737793,276.346985 
z"/>
<path fill="#080808" opacity="1.000000" stroke="none" 
	d="
M231.379364,318.900146 
	C230.817429,297.363861 230.347595,276.250183 229.961319,255.135025 
	C229.839752,248.490341 229.942368,241.841553 229.942368,234.826721 
	C235.841812,234.826721 241.387192,234.826721 247.558197,234.826721 
	C247.558197,236.730820 247.550903,238.510880 247.559311,240.290863 
	C247.675674,264.939270 247.607910,289.590393 247.973267,314.235138 
	C248.247589,332.739685 258.720032,346.547821 274.887024,350.675659 
	C294.901794,355.786011 312.945618,349.305237 322.219025,333.279816 
	C327.323700,324.458405 327.227844,314.372192 327.408478,304.638458 
	C327.807129,283.158844 327.586761,261.667725 327.618286,240.181290 
	C327.620911,238.401077 327.618652,236.620865 327.618652,234.693665 
	C333.500122,234.693665 338.753998,234.693665 344.181396,234.693665 
	C344.370636,235.501633 344.645660,236.122070 344.642212,236.740967 
	C344.498413,262.551483 344.642242,288.369080 344.042389,314.169342 
	C343.703125,328.762085 339.827576,342.491516 329.095612,353.262970 
	C314.648773,367.763000 296.615509,370.221283 277.371246,368.117950 
	C253.485352,365.507355 234.034241,349.408539 231.379364,318.900146 
z"/>
<path fill="#F5AE25" opacity="1.000000" stroke="none" 
	d="
M962.600159,194.234116 
	C990.917969,156.040558 1019.235840,117.847000 1047.875610,79.219170 
	C1042.906128,78.064163 1038.357544,77.006973 1033.800537,75.947823 
	C1034.364746,71.679008 1037.022827,70.358757 1039.939819,70.689865 
	C1049.337646,71.756577 1055.273682,67.285843 1059.849976,59.663048 
	C1062.310303,55.564766 1065.476196,51.890038 1068.883789,47.263992 
	C1065.312622,45.679031 1062.233398,44.287899 1059.134644,42.941555 
	C1049.065796,38.566853 1038.957886,34.279556 1028.953491,29.762854 
	C1027.547363,29.128065 1026.634277,27.401646 1025.493042,26.180504 
	C1027.212769,25.598412 1029.005127,24.357075 1030.640747,24.537495 
	C1045.023315,26.124004 1059.385620,27.903206 1073.736450,29.761057 
	C1078.813110,30.418274 1082.728882,30.060122 1085.954834,24.872196 
	C1089.783936,18.714310 1094.725708,13.151133 1099.756104,7.874269 
	C1102.737793,4.746459 1106.834595,1.261639 1111.537598,4.417109 
	C1116.270874,7.592863 1114.346558,12.546527 1112.150635,16.111639 
	C1107.816772,23.147696 1103.017822,29.974022 1097.716187,36.304977 
	C1095.073364,39.461010 1095.114502,41.846752 1096.430786,45.231216 
	C1101.976562,59.490303 1107.383545,73.803993 1112.724609,88.141190 
	C1113.356934,89.838448 1113.270874,91.803284 1113.517822,93.644089 
	C1112.733398,93.998795 1111.948853,94.353500 1111.164307,94.708214 
	C1101.295898,82.312210 1091.427490,69.916214 1081.299194,57.193920 
	C1076.194092,63.601376 1070.679199,69.656433 1066.311523,76.449234 
	C1064.658569,79.020073 1065.379517,83.303970 1065.514160,86.787880 
	C1065.667236,90.747574 1068.235474,95.002716 1063.005981,98.511971 
	C1060.794800,94.387413 1058.646606,90.380104 1056.070923,85.575363 
	C1013.195007,144.198151 970.560242,202.491226 927.323242,260.833740 
	C924.795288,257.860901 922.869568,254.838608 921.065796,251.507904 
	C922.040344,249.990753 922.904541,248.790009 923.743469,247.571854 
	C928.474243,240.703491 933.198914,233.830933 938.069824,226.654724 
	C944.824829,217.673325 951.472656,209.024689 958.013428,200.295776 
	C959.230286,198.671890 960.016602,196.725388 961.001587,194.927780 
	C961.001587,194.927780 961.026489,195.030548 961.151367,194.883484 
	C961.717529,194.568985 962.158813,194.401550 962.600159,194.234116 
z"/>
<path fill="#050505" opacity="1.000000" stroke="none" 
	d="
M1054.431763,308.138367 
	C1055.308838,304.709259 1056.023804,301.652618 1056.860962,298.073395 
	C1038.587891,298.073395 1020.715454,298.073395 1002.470337,298.073395 
	C1002.470337,292.395111 1002.470337,287.154816 1002.470337,281.530396 
	C1026.664185,281.530396 1051.036377,281.530396 1075.409546,281.533264 
	C1076.827393,310.869781 1063.905029,339.601257 1038.748901,354.953247 
	C1019.225342,366.867859 997.851379,369.281128 975.715210,366.764008 
	C942.753479,363.015778 918.430542,346.312988 902.469177,317.169098 
	C899.907410,312.491547 900.108459,309.224670 903.652954,305.319275 
	C906.956970,301.678741 909.523438,297.368805 912.186829,293.669739 
	C915.795410,301.234619 918.515808,309.246643 923.054138,316.045013 
	C941.063171,343.022247 967.347900,353.662201 998.789429,350.593689 
	C1025.316162,348.004791 1044.852661,334.501404 1054.431763,308.138367 
z"/>
<path fill="#070707" opacity="1.000000" stroke="none" 
	d="
M444.505554,252.387268 
	C442.115417,255.379196 439.990784,258.125092 438.550262,259.986877 
	C431.118042,255.541245 425.602844,251.446732 419.473846,248.744385 
	C407.313171,243.382599 393.177643,250.173401 391.040192,262.048279 
	C389.346008,271.460541 394.835144,277.687073 401.857635,282.322266 
	C411.539856,288.713013 421.970123,293.977203 431.598724,300.440887 
	C446.443665,310.406250 450.927155,324.854675 445.794678,342.459320 
	C440.969849,359.008667 425.579926,369.429443 407.088257,368.818604 
	C392.227295,368.327667 379.270691,362.755524 369.460907,350.197906 
	C372.941376,346.238434 376.374115,342.333282 379.678802,338.573792 
	C384.841858,342.383636 389.314972,346.418610 394.432800,349.314026 
	C406.559387,356.174622 422.124603,352.077332 428.638763,340.810883 
	C434.343506,330.944336 431.472443,319.774414 421.143585,313.174652 
	C414.864227,309.162323 408.234009,305.698395 401.754913,301.999481 
	C392.324280,296.615509 382.926941,291.054871 378.570221,280.391479 
	C373.292511,267.473938 373.826141,254.780884 382.983154,243.776459 
	C393.038422,231.692596 406.418884,228.614395 421.319550,232.429291 
	C431.517914,235.040283 439.866913,241.010193 447.623505,248.694305 
	C446.598785,249.932602 445.684937,251.036926 444.505554,252.387268 
z"/>
<path fill="#060606" opacity="1.000000" stroke="none" 
	d="
M490.265808,339.429596 
	C500.394714,354.295197 504.377136,355.555328 524.596436,350.434631 
	C526.199646,354.723877 527.813477,359.041779 529.427979,363.362122 
	C508.914948,373.908234 487.266022,369.346252 475.472107,348.399231 
	C471.128540,340.684662 469.087341,332.415436 469.093353,323.569214 
	C469.123047,279.754333 469.106873,235.939453 469.106842,192.124573 
	C469.106842,190.468872 469.106842,188.813156 469.106842,186.792511 
	C474.768219,186.792511 480.154114,186.792511 485.962036,186.792511 
	C485.962036,207.587128 485.962036,228.182556 485.962036,249.322662 
	C496.415466,249.322662 506.471130,249.322662 516.839844,249.322662 
	C516.839844,254.423660 516.839844,258.985687 516.839844,264.037231 
	C507.029510,264.037231 497.121429,264.037231 486.678955,264.037231 
	C486.575531,266.231659 486.430908,267.977386 486.420654,269.723938 
	C486.320038,286.877930 485.901184,304.040802 486.342072,321.181366 
	C486.496338,327.179352 488.782410,333.122498 490.265808,339.429596 
z"/>
<path fill="#0A0A0A" opacity="1.000000" stroke="none" 
	d="
M1643.723022,328.000183 
	C1643.723022,340.960724 1643.723022,353.421265 1643.723022,366.211060 
	C1638.160767,366.211060 1632.924072,366.211060 1627.392578,366.211060 
	C1627.392578,307.775116 1627.392578,249.431458 1627.392578,190.772003 
	C1632.605103,190.772003 1637.849365,190.772003 1643.723022,190.772003 
	C1643.723022,236.424362 1643.723022,281.962250 1643.723022,328.000183 
z"/>
<path fill="#0A0A0A" opacity="1.000000" stroke="none" 
	d="
M1103.123169,336.999939 
	C1103.123169,288.067230 1103.123169,239.634537 1103.123169,190.829407 
	C1108.554565,190.829407 1113.784546,190.829407 1119.386475,190.829407 
	C1119.386475,249.136124 1119.386475,307.466064 1119.386475,366.169983 
	C1114.300903,366.169983 1109.064331,366.169983 1103.123169,366.169983 
	C1103.123169,356.638611 1103.123169,347.069305 1103.123169,336.999939 
z"/>
<path fill="#050403" opacity="1.000000" stroke="none" 
	d="
M960.605957,194.926147 
	C960.016602,196.725388 959.230286,198.671890 958.013428,200.295776 
	C951.472656,209.024689 944.824829,217.673325 937.724731,226.680527 
	C926.743347,234.679947 920.400635,245.351120 915.284180,257.302887 
	C911.268250,262.980865 907.460083,268.415955 903.393433,274.053406 
	C900.029358,278.219452 896.923828,282.183136 893.818359,286.146790 
	C890.964905,252.732544 904.131409,226.995148 931.382935,208.105118 
	C940.179749,202.007370 949.715698,197.380783 960.605957,194.926147 
z"/>
<path fill="#FB684F" opacity="1.000000" stroke="none" 
	d="
M810.627380,322.005554 
	C811.385071,329.202942 811.362366,336.594727 813.094910,343.549255 
	C815.339722,352.560059 823.668945,355.427917 832.745483,351.339294 
	C835.497131,355.664978 837.737915,359.800385 839.978760,363.935791 
	C831.802979,368.844299 822.943359,370.909698 813.736206,368.300873 
	C799.907349,364.382568 795.293762,352.981171 793.039612,340.346375 
	C791.977966,334.395081 791.875671,328.272675 791.272278,321.480652 
	C789.447571,323.576843 788.081360,325.146240 786.056213,326.833252 
	C784.339355,325.791718 783.239868,324.667480 782.232910,323.465668 
	C780.478577,321.371948 778.781372,319.230377 777.060181,317.108887 
	C781.934875,310.571960 786.809570,304.035004 792.274292,297.258636 
	C794.291626,298.457611 796.066589,299.687531 797.078552,301.375031 
	C799.695679,305.739136 801.768982,310.434784 804.467163,314.742706 
	C806.134766,317.405304 808.548584,319.600494 810.627380,322.005554 
z"/>
<path fill="#040404" opacity="1.000000" stroke="none" 
	d="
M1043.099976,206.907562 
	C1050.881104,212.598404 1058.337036,218.125366 1066.355591,224.069290 
	C1061.438110,228.672958 1057.148438,232.688950 1052.670654,236.881058 
	C1030.367065,216.740524 1005.183594,204.871338 973.496155,209.384430 
	C977.767090,203.362198 981.471863,197.929718 985.456970,192.711380 
	C986.174683,191.771576 988.058838,191.276382 989.383789,191.313629 
	C1008.498230,191.850952 1026.447266,196.517883 1043.099976,206.907562 
z"/>
<path fill="#FE4666" opacity="1.000000" stroke="none" 
	d="
M721.908325,321.001526 
	C723.081970,327.490356 723.930176,334.060242 725.521423,340.444946 
	C727.090576,346.740723 731.497192,349.770020 738.572388,349.522614 
	C739.545471,351.433990 740.109741,352.898132 740.638611,354.375000 
	C741.766968,357.526459 742.877014,360.684448 743.994568,363.839783 
	C726.322815,370.554413 711.426636,360.962585 706.120300,341.695282 
	C702.307678,327.851929 702.416931,313.744293 704.901733,299.394379 
	C709.021606,304.638855 712.519348,310.190247 716.332153,315.516052 
	C717.827454,317.604736 720.028625,319.188080 721.908325,321.001526 
z"/>
<path fill="#F79333" opacity="1.000000" stroke="none" 
	d="
M837.955078,226.876877 
	C845.416016,222.508743 853.161926,220.625168 861.731750,223.464859 
	C873.918640,227.503082 879.530640,240.115295 875.210510,253.467606 
	C872.961731,260.418060 869.090393,266.206696 863.627991,271.713806 
	C860.312683,267.860382 857.565674,263.744934 854.862061,259.291382 
	C855.603760,257.866821 856.309570,256.785217 856.998840,255.693115 
	C859.328979,252.001068 861.885376,247.931732 858.059082,244.137375 
	C854.622192,240.729034 850.863098,243.574371 847.092896,245.016022 
	C843.833252,238.847061 840.894165,232.861969 837.955078,226.876877 
z"/>
<path fill="#FE3F69" opacity="1.000000" stroke="none" 
	d="
M680.261658,310.721008 
	C678.729370,310.093811 676.913513,309.471680 676.217102,308.224457 
	C666.759705,291.287354 657.442749,274.271576 648.150574,257.242859 
	C647.539368,256.122803 647.409180,254.740265 647.085083,253.078171 
	C651.911865,256.567932 656.489075,255.670975 661.385986,252.553207 
	C664.694702,250.446625 668.511169,249.137390 672.523499,247.798492 
	C674.627258,252.351212 676.307983,256.576965 677.988770,260.802673 
	C674.882568,262.881500 671.776367,264.960327 668.225220,267.336975 
	C680.858826,279.578552 687.038818,293.296448 680.261658,310.721008 
z"/>
<path fill="#FB6153" opacity="1.000000" stroke="none" 
	d="
M659.987976,130.975372 
	C669.114563,128.842010 678.091614,128.817169 686.547607,133.428970 
	C701.426025,141.543533 703.317505,165.388504 689.880005,174.866302 
	C688.963562,175.512741 687.803101,175.813141 686.350891,175.858185 
	C679.907349,164.389908 673.979309,153.275436 667.772400,142.318924 
	C665.520386,138.343567 662.602173,134.745560 659.987976,130.975372 
z"/>
<path fill="#FC5658" opacity="1.000000" stroke="none" 
	d="
M659.579773,130.941956 
	C662.602173,134.745560 665.520386,138.343567 667.772400,142.318924 
	C673.979309,153.275436 679.907349,164.389908 685.977051,175.818237 
	C684.134216,175.833160 681.443176,176.137390 680.518250,175.002411 
	C674.476440,167.587982 666.757019,168.986221 658.477661,169.928406 
	C651.845215,158.622910 645.695862,147.662079 639.546509,136.701248 
	C646.088196,134.770340 652.629883,132.839432 659.579773,130.941956 
z"/>
<path fill="#FE4166" opacity="1.000000" stroke="none" 
	d="
M613.288818,191.479156 
	C611.305603,187.529800 609.862610,183.366821 607.899597,179.465469 
	C604.572144,172.852203 600.916504,166.404099 597.253052,159.593811 
	C603.394897,155.166489 609.682495,151.031906 616.689331,146.955566 
	C620.506287,151.831665 623.831787,156.521103 626.640381,161.501999 
	C629.705444,166.937836 632.291748,172.643661 635.086792,178.231796 
	C627.922913,182.615601 620.758972,186.999405 613.288818,191.479156 
z"/>
<path fill="#F97B41" opacity="1.000000" stroke="none" 
	d="
M802.938477,271.976379 
	C807.124695,263.784424 811.310913,255.592468 816.116028,247.259155 
	C820.526733,254.161209 824.318481,261.204590 828.070129,268.593628 
	C826.578430,271.938690 825.126892,274.938110 823.675354,277.937531 
	C824.020935,278.268799 824.366516,278.600037 824.712097,278.931274 
	C828.088196,277.771393 831.464294,276.611511 834.897278,275.844452 
	C836.645508,280.516449 838.336853,284.795624 840.028198,289.074829 
	C832.692078,291.141937 825.355957,293.209045 817.437256,294.945007 
	C815.806458,292.542908 814.916748,290.371521 813.679993,288.420074 
	C810.175537,282.890656 806.529053,277.451233 802.938477,271.976379 
z"/>
<path fill="#FD4C5F" opacity="1.000000" stroke="none" 
	d="
M635.464172,178.193298 
	C632.291748,172.643661 629.705444,166.937836 626.640381,161.501999 
	C623.831787,156.521103 620.506287,151.831665 617.041626,146.944336 
	C624.050659,143.488449 631.426697,140.102020 639.174683,136.708420 
	C645.695862,147.662079 651.845215,158.622910 658.044189,169.965393 
	C650.676392,172.949646 643.258972,175.552216 635.464172,178.193298 
z"/>
<path fill="#FA724B" opacity="1.000000" stroke="none" 
	d="
M751.999084,219.024017 
	C760.959656,215.408325 769.614868,216.396072 776.802673,222.585388 
	C783.985413,228.770294 785.796326,237.451904 782.907349,246.287430 
	C780.784485,252.780182 777.083069,258.756805 773.432983,264.937195 
	C771.579712,263.405548 770.405945,261.877258 769.170837,260.400269 
	C767.325073,258.193085 765.436218,256.021912 763.682617,253.480743 
	C764.727722,251.199326 765.866577,249.343674 766.545105,247.332718 
	C768.700012,240.946793 766.634399,238.045410 759.996826,237.476776 
	C759.270447,235.152618 758.649902,233.162308 757.794434,231.278732 
	C755.926147,227.165024 753.938171,223.105606 751.999084,219.024017 
z"/>
<path fill="#FC5759" opacity="1.000000" stroke="none" 
	d="
M711.502014,269.868622 
	C714.393311,263.037170 717.284607,256.205750 720.779053,249.179474 
	C722.821533,250.449905 724.587280,251.713837 725.638794,253.418335 
	C728.744690,258.453156 731.568298,263.662140 734.467407,269.139252 
	C734.048950,271.131317 733.665405,272.787109 732.977966,275.754486 
	C737.331238,274.022552 740.578247,272.730743 743.885254,271.833679 
	C745.631104,276.499969 747.316956,280.771576 749.002747,285.043213 
	C741.631348,287.714020 734.260010,290.384827 726.466492,292.851105 
	C722.327454,285.886993 718.680481,279.087128 714.825012,272.407471 
	C714.181763,271.293152 712.632568,270.701691 711.502014,269.868622 
z"/>
<path fill="#FC5F56" opacity="1.000000" stroke="none" 
	d="
M734.502319,268.802979 
	C731.568298,263.662140 728.744690,258.453156 725.638794,253.418335 
	C724.587280,251.713837 722.821533,250.449905 721.002075,248.923355 
	C721.744202,246.677887 722.866394,244.493729 724.699890,240.925217 
	C718.919617,242.895355 714.350342,244.452744 709.263794,245.714813 
	C707.194519,242.015320 705.642456,238.611145 704.090393,235.206985 
	C713.450867,232.829117 722.811340,230.451248 732.592896,228.516113 
	C737.211243,236.067703 741.408630,243.176559 745.480225,250.618622 
	C741.737061,256.902222 738.119690,262.852600 734.502319,268.802979 
z"/>
<path fill="#FD4D5F" opacity="1.000000" stroke="none" 
	d="
M711.319580,270.163940 
	C712.632568,270.701691 714.181763,271.293152 714.825012,272.407471 
	C718.680481,279.087128 722.327454,285.886993 726.125122,293.037415 
	C724.835022,302.326508 723.464294,311.224823 722.000916,320.562317 
	C720.028625,319.188080 717.827454,317.604736 716.332153,315.516052 
	C712.519348,310.190247 709.021606,304.638855 705.070007,299.028992 
	C706.873840,289.406586 709.005493,279.932953 711.319580,270.163940 
z"/>
<path fill="#FA724B" opacity="1.000000" stroke="none" 
	d="
M802.681641,272.216858 
	C806.529053,277.451233 810.175537,282.890656 813.679993,288.420074 
	C814.916748,290.371521 815.806458,292.542908 817.005127,294.957123 
	C815.067627,303.928497 812.979675,312.556610 810.759521,321.595123 
	C808.548584,319.600494 806.134766,317.405304 804.467163,314.742706 
	C801.768982,310.434784 799.695679,305.739136 797.078552,301.375031 
	C796.066589,299.687531 794.291626,298.457611 792.510681,297.011230 
	C795.579712,288.821289 799.002319,280.639313 802.681641,272.216858 
z"/>
<path fill="#F8873B" opacity="1.000000" stroke="none" 
	d="
M828.110229,268.247986 
	C824.318481,261.204590 820.526733,254.161209 816.397583,247.069046 
	C821.372131,238.482452 828.411926,231.768326 837.600586,226.912506 
	C840.894165,232.861969 843.833252,238.847061 846.898560,245.301666 
	C840.719910,253.263458 834.415039,260.755737 828.110229,268.247986 
z"/>
<path fill="#FA7A46" opacity="1.000000" stroke="none" 
	d="
M840.325256,363.894440 
	C837.737915,359.800385 835.497131,355.664978 833.107544,351.212402 
	C842.078613,343.308105 851.198425,335.720947 860.758179,328.305359 
	C863.894226,332.016846 866.590332,335.556702 869.286499,339.096558 
	C861.381104,349.236053 851.862732,357.511169 840.325256,363.894440 
z"/>
<path fill="#F88A3C" opacity="1.000000" stroke="none" 
	d="
M869.575012,338.949768 
	C866.590332,335.556702 863.894226,332.016846 861.055176,328.143188 
	C868.185242,319.188751 875.458313,310.568146 883.386475,301.974915 
	C887.334717,303.783142 887.225159,309.547791 892.392090,309.134979 
	C884.882568,319.024292 877.373108,328.913635 869.575012,338.949768 
z"/>
<path fill="#FB684F" opacity="1.000000" stroke="none" 
	d="
M745.605957,250.285400 
	C741.408630,243.176559 737.211243,236.067703 733.005493,228.598801 
	C736.298157,226.551575 739.590332,224.846558 742.903198,223.182785 
	C745.682434,221.786972 748.485840,220.439270 751.638794,219.047150 
	C753.938171,223.105606 755.926147,227.165024 757.794434,231.278732 
	C758.649902,233.162308 759.270447,235.152618 759.682861,237.628021 
	C754.780701,242.202820 750.193359,246.244110 745.605957,250.285400 
z"/>
<path fill="#FD5061" opacity="1.000000" stroke="none" 
	d="
M703.712952,235.187775 
	C705.642456,238.611145 707.194519,242.015320 708.887207,245.745346 
	C698.911255,250.958893 688.794678,255.846603 678.333374,260.768494 
	C676.307983,256.576965 674.627258,252.351212 672.901123,247.714630 
	C683.015686,243.258713 693.175598,239.213654 703.712952,235.187775 
z"/>
<path fill="#FB6553" opacity="1.000000" stroke="none" 
	d="
M749.353638,284.971130 
	C747.316956,280.771576 745.631104,276.499969 744.120544,271.622925 
	C750.719116,265.290100 757.142395,259.562744 763.565735,253.835434 
	C765.436218,256.021912 767.325073,258.193085 769.170837,260.400269 
	C770.405945,261.877258 771.579712,263.405548 773.133423,265.057983 
	C767.638611,274.281097 759.112305,280.122284 749.353638,284.971130 
z"/>
<path fill="#FC5F56" opacity="1.000000" stroke="none" 
	d="
M776.756592,317.245575 
	C778.781372,319.230377 780.478577,321.371948 782.232910,323.465668 
	C783.239868,324.667480 784.339355,325.791718 785.756836,326.996460 
	C779.617554,334.616669 773.118713,342.191284 766.278870,349.557068 
	C763.510071,345.326141 761.082153,341.304016 758.654297,337.281921 
	C764.587219,330.648712 770.520142,324.015472 776.756592,317.245575 
z"/>
<path fill="#F19530" opacity="1.000000" stroke="none" 
	d="
M892.662109,308.958557 
	C887.225159,309.547791 887.334717,303.783142 883.671570,301.834015 
	C886.651489,296.638153 890.001343,291.610565 893.584778,286.364868 
	C896.923828,282.183136 900.029358,278.219452 903.712646,274.231995 
	C906.624146,277.168274 908.957947,280.128326 911.291748,283.088379 
	C905.171814,291.652954 899.051941,300.217529 892.662109,308.958557 
z"/>
<path fill="#F88A3C" opacity="1.000000" stroke="none" 
	d="
M840.392334,289.053162 
	C838.336853,284.795624 836.645508,280.516449 835.159546,275.661377 
	C841.849548,269.933502 848.334167,264.781494 854.818726,259.629517 
	C857.565674,263.744934 860.312683,267.860382 863.408081,271.984375 
	C857.751465,279.915466 849.564087,284.892029 840.392334,289.053162 
z"/>
<path fill="#FD5061" opacity="1.000000" stroke="none" 
	d="
M758.321045,337.408966 
	C761.082153,341.304016 763.510071,345.326141 765.977905,349.704132 
	C758.916931,354.657562 751.815979,359.255066 744.354858,363.846191 
	C742.877014,360.684448 741.766968,357.526459 740.638611,354.375000 
	C740.109741,352.898132 739.545471,351.433990 738.997498,349.591827 
	C745.327759,345.325043 751.657776,341.430511 758.321045,337.408966 
z"/>
<path fill="#F5A326" opacity="1.000000" stroke="none" 
	d="
M911.581543,282.924835 
	C908.957947,280.128326 906.624146,277.168274 903.971191,274.029663 
	C907.460083,268.415955 911.268250,262.980865 915.615479,257.163971 
	C917.750977,255.126892 919.347412,253.471588 920.943848,251.816299 
	C922.869568,254.838608 924.795288,257.860901 927.064209,261.031067 
	C922.228638,268.373077 917.049927,275.567200 911.581543,282.924835 
z"/>
<path fill="#050403" opacity="1.000000" stroke="none" 
	d="
M962.363770,194.282715 
	C962.158813,194.401550 961.717529,194.568985 961.101685,194.901581 
	C961.327271,194.821609 961.727295,194.576462 962.363770,194.282715 
z"/>
<path fill="#FFFCFD" opacity="1.000000" stroke="none" 
	d="
M651.597046,319.575897 
	C636.263733,338.137756 617.428406,350.438477 594.048889,355.259827 
	C591.027649,355.882874 587.721863,355.752045 584.637939,355.323090 
	C576.810547,354.234467 574.042969,349.545624 576.912170,342.115723 
	C580.974304,331.596497 588.319153,323.220032 596.777283,316.293427 
	C611.909851,303.900879 627.815308,292.455231 643.288940,280.473297 
	C646.575867,277.928070 649.036621,279.375488 650.988464,281.671875 
	C659.143616,291.266541 663.052551,299.036896 656.794006,311.254852 
	C655.361267,314.051758 653.500122,316.629211 651.597046,319.575897 
z"/>
<path fill="#FEFEFE" opacity="1.000000" stroke="none" 
	d="
M1343.401855,257.337860 
	C1360.744141,246.599945 1378.456543,244.841812 1396.208740,254.634750 
	C1413.531982,264.191162 1421.822266,279.846649 1422.612671,299.299286 
	C1423.669556,325.303284 1402.413818,348.558685 1376.081665,350.793182 
	C1350.277100,352.982971 1326.527832,334.163757 1322.907959,308.437531 
	C1319.991699,287.712189 1325.662598,270.261230 1343.401855,257.337860 
z"/>
<path fill="#FEFEFE" opacity="1.000000" stroke="none" 
	d="
M1562.319702,260.648438 
	C1577.258667,273.044922 1579.097656,289.641327 1578.557251,307.060791 
	C1568.954956,335.578339 1548.693237,356.782562 1516.056641,348.306824 
	C1502.650391,344.825226 1492.780396,334.476868 1486.881226,321.329712 
	C1474.962769,294.767792 1487.309937,263.023193 1514.369873,252.563705 
	C1531.422363,245.972382 1547.679932,248.547638 1562.319702,260.648438 
z"/>
<path fill="#FEFEFE" opacity="1.000000" stroke="none" 
	d="
M1169.888184,276.005859 
	C1182.572144,254.896301 1202.098755,245.714752 1223.836060,250.368805 
	C1246.461548,255.213043 1264.054565,278.570251 1262.623657,301.864655 
	C1261.080688,326.981171 1246.248535,345.748871 1224.420044,349.882019 
	C1204.483765,353.656799 1186.999756,348.819519 1174.645264,332.319244 
	C1161.726318,315.065338 1160.423828,295.966614 1169.888184,276.005859 
z"/>
<path fill="#F0EDE7" opacity="1.000000" stroke="none" 
	d="
M921.065796,251.507904 
	C919.347412,253.471588 917.750977,255.126892 915.823303,256.921112 
	C920.400635,245.351120 926.743347,234.679947 937.580566,226.985596 
	C933.198914,233.830933 928.474243,240.703491 923.743469,247.571854 
	C922.904541,248.790009 922.040344,249.990753 921.065796,251.507904 
z"/>
<path fill="#FFF9F8" opacity="1.000000" stroke="none" 
	d="
M854.862061,259.291351 
	C848.334167,264.781494 841.849548,269.933502 835.102661,275.268555 
	C831.464294,276.611511 828.088196,277.771393 824.712097,278.931274 
	C824.366516,278.600037 824.020935,278.268799 823.675354,277.937531 
	C825.126892,274.938110 826.578430,271.938690 828.070129,268.593628 
	C834.415039,260.755737 840.719910,253.263458 847.219177,245.485535 
	C850.863098,243.574371 854.622192,240.729034 858.059082,244.137375 
	C861.885376,247.931732 859.328979,252.001068 856.998840,255.693115 
	C856.309570,256.785217 855.603760,257.866821 854.862061,259.291351 
z"/>
<path fill="#FFF9F8" opacity="1.000000" stroke="none" 
	d="
M763.682617,253.480728 
	C757.142395,259.562744 750.719116,265.290100 744.060547,271.228180 
	C740.578247,272.730743 737.331238,274.022552 732.977966,275.754486 
	C733.665405,272.787109 734.048950,271.131317 734.467407,269.139252 
	C738.119690,262.852600 741.737061,256.902222 745.480225,250.618622 
	C750.193359,246.244110 754.780701,242.202820 759.682129,238.010284 
	C766.634399,238.045410 768.700012,240.946793 766.545105,247.332718 
	C765.866577,249.343674 764.727722,251.199326 763.682617,253.480728 
z"/>
</svg>