<?xml version="1.0" standalone="no"?>
<!DOCTYPE svg PUBLIC "-//W3C//DTD SVG 20010904//EN"
 "http://www.w3.org/TR/2001/REC-SVG-20010904/DTD/svg10.dtd">
<svg version="1.0" xmlns="http://www.w3.org/2000/svg"
 width="1646.000000pt" height="380.000000pt" viewBox="0 0 1646.000000 380.000000"
 preserveAspectRatio="xMidYMid meet">

<g transform="translate(0.000000,380.000000) scale(0.100000,-0.100000)"
fill="#000000" stroke="none">
<path d="M6555 2485 c-44 -7 -132 -33 -195 -57 -442 -170 -728 -471 -730 -769
0 -68 13 -110 53 -167 62 -87 182 -160 530 -321 48 -22 87 -45 87 -50 0 -8
-57 -48 -85 -60 -15 -6 -157 -104 -174 -119 -8 -8 -39 -32 -70 -54 -78 -57
-259 -242 -302 -308 -51 -78 -89 -181 -89 -239 0 -70 43 -147 101 -184 92 -56
184 -68 327 -41 308 58 645 296 754 533 70 153 74 210 22 319 -20 41 -54 94
-75 117 -21 23 -39 47 -39 52 0 10 90 69 170 111 62 32 241 112 251 112 5 0
32 11 61 24 74 33 95 39 103 26 4 -6 -2 -21 -13 -33 -23 -26 -112 -209 -137
-282 -17 -53 -21 -67 -54 -235 -46 -232 -13 -499 75 -603 155 -184 424 -95
666 219 l48 62 -26 48 c-33 63 -30 61 -56 32 -13 -13 -43 -47 -68 -74 -129
-143 -261 -234 -339 -234 -97 0 -146 105 -143 310 1 103 22 244 39 260 9 9
188 70 204 70 18 0 120 78 110 84 -5 4 -12 20 -16 36 -4 17 -10 30 -15 30 -5
0 -12 9 -15 21 -6 19 -8 19 -25 4 -28 -26 -132 -75 -157 -75 -16 0 -23 6 -23
18 0 17 49 121 90 190 l20 33 -35 67 c-65 122 -89 162 -100 162 -6 0 -43 -9
-81 -19 -179 -50 -247 -71 -301 -94 -32 -14 -83 -35 -113 -47 -30 -12 -103
-45 -161 -72 l-107 -50 -53 34 c-52 32 -99 57 -324 173 -192 98 -228 129 -228
194 0 54 27 101 96 171 80 81 185 151 322 216 147 70 230 94 321 94 81 0 116
-12 139 -47 29 -43 96 -18 131 49 16 31 11 50 -26 108 -30 47 -118 208 -125
228 -13 44 -72 51 -220 27z m-58 -1479 c15 -13 44 -50 63 -82 53 -88 48 -156
-21 -274 -57 -100 -221 -239 -374 -319 -195 -101 -382 -112 -416 -24 -32 85
76 242 291 425 134 113 390 296 417 298 6 0 24 -11 40 -24z"/>
<path d="M4682 1208 c3 -732 3 -733 26 -792 81 -215 243 -318 440 -281 103 20
135 33 127 54 -4 9 -14 38 -23 64 -13 41 -19 48 -36 43 -105 -27 -124 -28
-179 -12 -71 21 -137 91 -167 180 -18 55 -20 85 -20 383 l0 323 155 0 155 0 0
70 0 70 -155 0 -155 0 0 315 0 315 -85 0 -86 0 3 -732z"/>
<path d="M13060 1333 c0 -684 0 -687 86 -861 51 -103 101 -154 223 -229 111
-68 192 -88 351 -88 116 0 146 3 209 24 157 52 306 183 379 334 53 108 67 170
67 297 0 126 -14 188 -67 300 -33 69 -56 101 -127 171 -134 134 -264 190 -445
190 -178 1 -316 -54 -443 -175 l-73 -69 0 352 0 351 -80 0 -80 0 0 -597z m814
-33 c191 -66 325 -244 342 -455 19 -234 -151 -470 -381 -530 -111 -28 -259
-11 -358 42 -79 43 -178 146 -214 223 -145 308 12 653 333 735 76 19 200 13
278 -15z"/>
<path d="M263 1892 c-6 -4 -14 -36 -18 -72 -3 -36 -10 -85 -16 -110 -5 -25
-15 -94 -23 -155 -14 -103 -33 -244 -72 -510 -9 -60 -22 -156 -30 -212 -7 -56
-16 -112 -19 -125 -3 -13 -12 -75 -20 -138 -22 -174 -44 -329 -53 -387 l-9
-53 82 0 82 0 16 103 c9 56 21 140 27 187 11 92 24 192 65 485 14 105 35 255
45 334 11 80 22 146 24 149 3 2 24 -34 47 -79 84 -167 373 -749 477 -961 99
-200 109 -217 132 -215 18 1 30 14 47 47 86 169 573 1163 573 1170 0 4 6 13
14 20 12 9 16 5 21 -27 3 -21 10 -63 15 -93 5 -30 19 -131 30 -225 11 -93 27
-213 35 -265 8 -52 26 -180 40 -285 14 -104 30 -225 37 -267 l12 -78 83 0 c46
0 83 3 83 7 0 15 -52 386 -75 538 -14 88 -39 257 -56 375 -16 118 -39 276 -50
350 -10 74 -26 182 -34 240 -37 264 -38 266 -57 254 -9 -6 -105 -199 -368
-739 -252 -518 -342 -696 -350 -693 -9 3 -196 375 -586 1166 -75 149 -136 272
-137 272 -1 0 -7 -4 -14 -8z"/>
<path d="M9802 1820 c-30 -41 -59 -81 -64 -87 -8 -10 7 -11 69 -6 206 15 456
-72 635 -222 l74 -62 63 59 63 60 -33 34 c-51 53 -196 152 -284 194 -113 55
-239 89 -363 98 l-104 8 -56 -76z"/>
<path d="M11020 1025 l0 -875 80 0 80 0 0 875 0 875 -80 0 -80 0 0 -875z"/>
<path d="M16260 1025 l0 -875 80 0 80 0 0 875 0 875 -80 0 -80 0 0 -875z"/>
<path d="M9545 1846 c-231 -74 -444 -255 -540 -458 -60 -126 -79 -226 -76
-402 l1 -49 26 34 c127 170 170 234 199 295 49 107 105 183 199 270 46 44 100
102 119 131 29 42 65 93 140 191 5 6 8 12 6 11 -2 0 -35 -11 -74 -23z"/>
<path d="M4005 1483 c-109 -29 -189 -96 -232 -196 -33 -77 -32 -194 3 -273 32
-73 128 -167 216 -212 264 -135 332 -206 313 -331 -17 -115 -147 -204 -271
-187 -66 9 -129 39 -191 92 l-54 46 -40 -43 c-65 -72 -65 -72 -12 -124 95 -92
265 -145 395 -124 130 21 238 97 294 206 25 50 29 72 32 154 4 88 2 100 -26
160 -44 97 -114 157 -285 247 -201 107 -279 201 -248 302 48 161 258 187 413
51 20 -17 40 -31 45 -31 5 0 31 23 58 50 l50 51 -50 44 c-60 53 -148 99 -230
120 -73 18 -103 18 -180 -2z"/>
<path d="M12043 1469 c-150 -14 -264 -70 -378 -184 -134 -133 -195 -281 -196
-471 0 -200 55 -337 191 -474 97 -98 168 -140 286 -170 87 -23 226 -26 320 -9
169 31 324 143 422 304 109 178 121 437 29 630 -129 268 -372 403 -674 374z
m239 -177 c66 -23 127 -63 185 -121 274 -275 154 -760 -212 -856 -73 -19 -193
-19 -261 -1 -306 81 -455 438 -307 735 58 116 209 235 333 261 67 14 197 5
262 -18z"/>
<path d="M15230 1469 c-226 -22 -414 -157 -515 -371 -94 -197 -84 -443 25
-629 174 -296 523 -401 834 -250 79 38 159 108 208 181 16 24 17 19 17 -117
l1 -143 85 0 85 0 0 359 c0 388 -6 452 -54 570 -54 134 -184 275 -311 337
-115 56 -239 77 -375 63z m171 -159 c123 -23 260 -124 321 -236 30 -56 58
-192 58 -286 0 -48 -7 -74 -39 -141 -77 -159 -168 -256 -291 -308 -48 -21 -71
-24 -175 -24 -133 0 -155 7 -261 85 -223 166 -268 492 -98 716 120 159 296
229 485 194z"/>
<path d="M2290 1133 c0 -340 10 -507 35 -614 57 -248 255 -391 540 -391 254 0
441 114 517 316 42 108 48 190 48 614 l0 402 -79 0 -79 0 -4 -422 c-4 -390 -6
-428 -25 -490 -56 -186 -234 -288 -447 -257 -120 17 -236 91 -282 182 -44 84
-47 114 -51 560 l-5 427 -84 0 -84 0 0 -327z"/>
<path d="M10014 987 c-3 -8 -4 -45 -2 -83 l3 -69 273 -3 274 -2 -7 -33 c-40
-186 -159 -338 -336 -428 -186 -93 -467 -93 -673 0 -185 84 -334 242 -401 426
-15 41 -29 75 -31 75 -1 0 -30 -38 -64 -85 l-62 -85 22 -44 c172 -356 540
-549 978 -514 441 36 733 341 754 788 l3 65 -363 3 c-298 2 -363 0 -368 -11z"/>
<path d="M7970 283 c1 -18 32 -63 44 -63 3 0 -4 18 -15 40 -23 44 -29 49 -29
23z"/>
</g>
</svg>
